<svg width="312" height="302" viewBox="0 0 312 302" fill="none" xmlns="http://www.w3.org/2000/svg">
<rect y="0.849609" width="311.85" height="300.3" rx="4.62" fill="#E7FDE2"/>
<g clip-path="url(#clip0_557_1471)">
<path d="M258.812 196.802C257.094 177.953 250.034 141.658 227.951 141.658C216.382 141.658 208.879 147.442 204.167 155.592C199.455 147.442 191.952 141.658 180.383 141.658C168.815 141.658 160.72 147.978 156.045 156.812C151.388 147.978 143.774 141.658 131.559 141.658C119.991 141.658 112.488 147.442 107.775 155.592C103.063 147.442 95.56 141.658 83.9915 141.658C62.1296 141.658 55.0518 177.934 53.1299 196.802H258.812Z" stroke="black" stroke-width="4.62" stroke-linecap="round" stroke-linejoin="round"/>
<path d="M95.4305 108.819C91.1247 101.557 81.7369 99.1729 74.4742 103.497C67.2116 107.822 64.8277 117.209 69.152 124.453C73.4763 131.716 82.8641 134.1 90.1083 129.776C97.3709 125.451 99.7549 116.064 95.4305 108.819Z" fill="#00D0D4"/>
<path d="M145.105 108.819C140.781 101.557 131.393 99.1729 124.149 103.497C116.886 107.822 114.502 117.209 118.826 124.453C123.151 131.716 132.538 134.1 139.801 129.776C147.064 125.451 149.448 116.064 145.123 108.819" fill="#4C96E1"/>
<path d="M192.617 108.819C188.293 101.557 178.905 99.1729 171.661 103.497C164.398 107.822 162.014 117.209 166.339 124.453C170.663 131.716 180.051 134.1 187.295 129.776C194.557 125.451 196.941 116.064 192.617 108.819Z" fill="#8D77CB"/>
<path d="M241.977 108.819C237.653 101.557 228.265 99.1729 221.021 103.497C213.758 107.822 211.374 117.209 215.698 124.453C220.023 131.716 229.411 134.1 236.673 129.776C243.936 125.451 246.32 116.064 241.995 108.819" fill="#BAADE9"/>
</g>
<defs>
<clipPath id="clip0_557_1471">
<rect width="210.302" height="97.7775" fill="white" transform="translate(50.8198 101.335)"/>
</clipPath>
</defs>
</svg>
