<svg width="312" height="302" viewBox="0 0 312 302" fill="none" xmlns="http://www.w3.org/2000/svg">
<rect y="0.849609" width="311.85" height="300.3" rx="4.62" fill="#E7FDE2"/>
<g clip-path="url(#clip0_557_1470)">
<path d="M124.204 102.694C121.174 97.6124 114.613 95.9492 109.531 98.9615C104.449 101.974 102.786 108.553 105.798 113.635C108.829 118.717 115.389 120.38 120.471 117.368C125.553 114.337 127.217 107.776 124.204 102.694Z" fill="#BAADE9"/>
<path d="M124.204 183.36C121.174 178.278 114.613 176.615 109.531 179.627C104.449 182.658 102.786 189.219 105.798 194.301C108.829 199.383 115.389 201.046 120.471 198.034C125.553 195.021 127.217 188.442 124.204 183.36Z" fill="#AFF89E"/>
<path d="M204.925 103.194C201.894 98.1124 195.334 96.4492 190.252 99.4615C185.17 102.474 183.507 109.053 186.519 114.135C189.55 119.217 196.11 120.88 201.192 117.868C206.274 114.837 207.937 108.276 204.925 103.194Z" fill="#00C6B5"/>
<path d="M190.252 180.107C185.17 183.138 183.507 189.698 186.519 194.78C189.55 199.862 196.11 201.526 201.192 198.513C206.274 195.501 207.937 188.922 204.925 183.84C202.929 180.477 199.363 178.61 195.704 178.61C193.837 178.61 191.952 179.091 190.234 180.126" fill="#75D6FB"/>
<path d="M115.038 78.3945C94.9133 78.3945 78.54 94.7678 78.54 114.893C78.54 127.551 85.0265 138.713 94.8394 145.255C95.8004 145.902 96.7798 146.493 97.7962 147.029C99.0713 147.713 100.383 148.304 101.732 148.822C105.853 150.448 110.326 151.372 115.02 151.372C119.713 151.372 124.186 150.448 128.307 148.822C129.582 148.323 130.838 147.768 132.04 147.122C133.056 146.586 134.054 145.994 134.996 145.366C144.92 138.843 151.499 127.607 151.499 114.874C151.518 94.7678 135.163 78.3945 115.038 78.3945ZM115.038 146.77C109.087 146.77 103.525 145.107 98.7572 142.243C100.919 133.465 105.502 125.592 114.946 125.592C120.453 125.592 124.777 127.921 127.771 132.504C128.066 133.151 129.693 136.921 131.06 142.391C126.348 145.144 120.878 146.752 115.038 146.752V146.77ZM133.925 140.506C132.446 134.888 130.765 131.266 130.672 131.044C130.635 130.97 130.598 130.915 130.561 130.859C126.921 125.223 121.672 122.377 114.946 122.377C105.706 122.377 99.1452 128.697 95.9297 140.358C88.1866 134.537 83.16 125.315 83.16 114.911C83.16 97.318 97.4636 83.0145 115.038 83.0145C132.613 83.0145 146.916 97.318 146.916 114.893C146.916 125.389 141.797 134.703 133.925 140.506Z" fill="black"/>
<path d="M196.35 78.3945C176.225 78.3945 159.852 94.7677 159.852 114.892C159.852 127.551 166.339 138.713 176.151 145.255C177.112 145.902 178.092 146.493 179.108 147.029C180.383 147.713 181.695 148.304 183.044 148.822C187.165 150.448 191.638 151.372 196.332 151.372C201.025 151.372 205.498 150.448 209.619 148.822C210.894 148.323 212.15 147.768 213.352 147.122C214.368 146.586 215.366 145.994 216.308 145.366C226.232 138.842 232.811 127.607 232.811 114.874C232.811 94.7492 216.438 78.376 196.313 78.376L196.35 78.3945ZM196.35 146.77C190.399 146.77 184.837 145.107 180.069 142.243C182.231 133.465 186.814 125.592 196.258 125.592C201.765 125.592 206.089 127.921 209.083 132.504C209.378 133.151 211.005 136.921 212.372 142.391C207.66 145.144 202.19 146.752 196.35 146.752V146.77ZM215.237 140.506C213.758 134.888 212.077 131.266 211.984 131.044C211.947 130.97 211.91 130.915 211.873 130.859C208.233 125.223 202.984 122.377 196.258 122.377C187.018 122.377 180.457 128.697 177.242 140.358C169.499 134.537 164.472 125.315 164.472 114.911C164.472 97.3364 178.776 83.0329 196.35 83.0329C213.925 83.0329 228.228 97.3364 228.228 114.911C228.228 125.408 223.109 134.721 215.237 140.524V140.506Z" fill="black"/>
<path d="M115.038 158.672C94.9133 158.672 78.54 175.045 78.54 195.17C78.54 207.829 85.0265 218.99 94.8394 225.532C95.8004 226.179 96.7798 226.771 97.7962 227.306C99.0713 227.99 100.383 228.582 101.732 229.099C105.853 230.725 110.326 231.649 115.02 231.649C119.713 231.649 124.186 230.725 128.307 229.099C129.582 228.6 130.838 228.046 132.04 227.399C133.056 226.863 134.054 226.272 134.996 225.643C144.92 219.12 151.499 207.884 151.499 195.151C151.499 175.027 135.126 158.653 115.001 158.653L115.038 158.672ZM115.038 227.048C109.087 227.048 103.525 225.385 98.7572 222.52C100.919 213.742 105.502 205.87 114.946 205.87C120.453 205.87 124.777 208.198 127.771 212.781C128.066 213.428 129.693 217.198 131.06 222.668C126.348 225.422 120.878 227.029 115.038 227.029V227.048ZM133.925 220.783C132.446 215.165 130.765 211.543 130.672 211.321C130.635 211.247 130.598 211.192 130.561 211.136C126.921 205.5 121.672 202.654 114.946 202.654C105.706 202.654 99.1452 208.974 95.9297 220.635C88.1866 214.814 83.16 205.592 83.16 195.188C83.16 177.614 97.4636 163.31 115.038 163.31C132.613 163.31 146.916 177.614 146.916 195.188C146.916 205.685 141.797 214.999 133.925 220.802V220.783Z" fill="black"/>
<path d="M196.35 158.672C176.225 158.672 159.852 175.045 159.852 195.17C159.852 207.829 166.339 218.99 176.151 225.532C177.112 226.179 178.092 226.771 179.108 227.306C180.383 227.99 181.695 228.582 183.044 229.099C187.165 230.725 191.638 231.649 196.332 231.649C201.025 231.649 205.498 230.725 209.619 229.099C210.894 228.6 212.15 228.046 213.352 227.399C214.368 226.863 215.366 226.272 216.308 225.643C226.232 219.12 232.811 207.884 232.811 195.151C232.811 175.027 216.438 158.653 196.313 158.653L196.35 158.672ZM196.35 227.048C190.399 227.048 184.837 225.385 180.069 222.52C182.231 213.742 186.814 205.87 196.258 205.87C201.765 205.87 206.089 208.198 209.083 212.781C209.378 213.428 211.005 217.198 212.372 222.668C207.66 225.422 202.19 227.029 196.35 227.029V227.048ZM215.237 220.783C213.758 215.165 212.077 211.543 211.984 211.321C211.947 211.247 211.91 211.192 211.873 211.136C208.233 205.5 202.984 202.654 196.258 202.654C187.018 202.654 180.457 208.974 177.242 220.635C169.499 214.814 164.472 205.592 164.472 195.188C164.472 177.614 178.776 163.31 196.35 163.31C213.925 163.31 228.228 177.614 228.228 195.188C228.228 205.685 223.109 214.999 215.237 220.802V220.783Z" fill="black"/>
</g>
<defs>
<clipPath id="clip0_557_1470">
<rect width="154.29" height="153.273" fill="white" transform="translate(78.54 78.3945)"/>
</clipPath>
</defs>
</svg>
