<svg width="312" height="302" viewBox="0 0 312 302" fill="none" xmlns="http://www.w3.org/2000/svg">
<rect y="0.849609" width="311.85" height="300.3" rx="4.62" fill="#E7FDE2"/>
<g clip-path="url(#clip0_557_1472)">
<path d="M86.5143 190.151H103.608L100.319 124.085H89.8037L86.5143 190.151ZM105.955 194.623H84.1673C83.5575 194.623 82.9661 194.383 82.5411 193.939C82.116 193.496 81.8943 192.904 81.9312 192.276L85.4424 121.738C85.4979 120.537 86.4773 119.613 87.66 119.613H102.426C103.627 119.594 104.643 120.537 104.699 121.738L108.228 192.276C108.247 192.886 108.025 193.477 107.618 193.939C107.175 194.383 106.584 194.641 105.955 194.623Z" fill="black"/>
<path d="M126.911 190.151H144.042L140.716 124.085H130.201L126.911 190.151ZM146.352 194.624H124.546C123.936 194.624 123.345 194.383 122.919 193.94C122.494 193.496 122.273 192.905 122.31 192.277L125.821 121.738C125.876 120.537 126.856 119.613 128.057 119.613H142.822C144.024 119.613 145.003 120.556 145.059 121.738L148.57 192.277C148.607 192.886 148.385 193.478 147.96 193.921C147.535 194.365 146.943 194.624 146.334 194.624H146.352Z" fill="black"/>
<path d="M167.309 190.151H184.421L181.132 124.085H170.617L167.327 190.151H167.309ZM186.768 194.624H164.962C164.352 194.624 163.761 194.383 163.335 193.921C162.91 193.478 162.689 192.886 162.726 192.277L166.237 121.738C166.292 120.537 167.272 119.613 168.473 119.613H183.238C184.44 119.613 185.419 120.556 185.475 121.738L188.986 192.277C189.023 192.886 188.801 193.496 188.376 193.94C187.951 194.383 187.359 194.642 186.75 194.624H186.768Z" fill="black"/>
<path d="M207.724 190.151H224.818L221.529 124.085H211.014L207.724 190.151ZM227.165 194.624H205.359C204.749 194.624 204.158 194.383 203.732 193.94C203.307 193.496 203.086 192.905 203.123 192.277L206.634 121.738C206.689 120.556 207.669 119.613 208.851 119.613H223.635C224.818 119.613 225.816 120.556 225.853 121.738L229.383 192.277C229.401 192.886 229.179 193.478 228.773 193.94C228.348 194.383 227.756 194.624 227.147 194.624H227.165Z" fill="black"/>
<path d="M81.395 209.278H229.956V194.605H81.395V209.278ZM232.192 213.75H79.1589C77.9208 213.75 76.9229 212.752 76.9229 211.514V192.369C76.9229 191.131 77.9208 190.133 79.1589 190.133H232.192C233.43 190.133 234.428 191.131 234.428 192.369V211.514C234.428 212.752 233.43 213.75 232.192 213.75Z" fill="black"/>
<path d="M67.9971 227.74H243.335V213.75H67.9971V227.74ZM245.571 232.212H65.761C64.5228 232.212 63.5249 231.214 63.5249 229.976V211.514C63.5249 210.923 63.7651 210.35 64.1717 209.925C64.5967 209.5 65.1511 209.278 65.761 209.278H245.571C246.163 209.278 246.736 209.519 247.161 209.925C247.586 210.35 247.826 210.923 247.807 211.514V229.994C247.807 231.214 246.791 232.212 245.571 232.212Z" fill="black"/>
<path d="M74.2436 119.613H237.089L155.666 73.4866L74.2436 119.613ZM245.572 124.085H65.7612C64.7448 124.085 63.8578 123.401 63.5991 122.422C63.3404 121.442 63.7839 120.407 64.6709 119.908L154.576 68.959C155.26 68.5709 156.091 68.5709 156.775 68.959L246.68 119.908C247.567 120.407 248.011 121.442 247.752 122.422C247.494 123.401 246.606 124.085 245.59 124.085H245.572Z" fill="black"/>
<path d="M155.666 87.8834C151.878 87.8834 148.459 90.1749 146.999 93.6676C145.539 97.1788 146.352 101.207 149.032 103.887C151.712 106.567 155.74 107.361 159.251 105.92C162.763 104.46 165.036 101.041 165.036 97.2527C165.036 92.0783 160.841 87.8834 155.666 87.8834ZM155.666 111.113C148.016 111.113 141.825 104.922 141.825 97.2712C141.825 89.6205 148.016 83.4297 155.666 83.4297C163.317 83.4297 169.508 89.6205 169.508 97.2712C169.508 104.922 163.298 111.113 155.666 111.113Z" fill="black"/>
<path d="M169.138 90.7286C164.814 83.466 155.426 81.0821 148.182 85.4064C140.919 89.7307 138.535 99.1185 142.86 106.363C147.184 113.625 156.572 116.009 163.834 111.685C171.097 107.361 173.481 97.9728 169.157 90.7286" fill="#75D6FB"/>
</g>
<defs>
<clipPath id="clip0_557_1472">
<rect width="184.283" height="163.548" fill="white" transform="translate(63.5249 68.6641)"/>
</clipPath>
</defs>
</svg>
