<svg width="312" height="302" viewBox="0 0 312 302" fill="none" xmlns="http://www.w3.org/2000/svg">
<rect y="0.849609" width="311.85" height="300.3" rx="4.62" fill="#E7FDE2"/>
<g clip-path="url(#clip0_557_1473)">
<path d="M75.9343 183.702V193.626C75.9343 198.948 80.2586 203.273 85.5808 203.273H226.842C232.164 203.273 236.488 198.948 236.488 193.626V183.702H75.9343ZM226.86 207.579H85.5808C77.8747 207.579 71.6469 201.332 71.6284 193.626V181.559C71.6284 180.376 72.5894 179.415 73.7721 179.415H238.669C239.852 179.415 240.813 180.376 240.813 181.559V193.626C240.813 197.322 239.334 200.87 236.71 203.494C234.086 206.1 230.538 207.579 226.842 207.579H226.86Z" fill="black"/>
<path d="M75.9527 179.415H236.507V79.8265C236.507 74.5043 232.183 70.1799 226.86 70.1799H85.5807C80.2585 70.1799 75.9342 74.5043 75.9342 79.8265V179.415H75.9527ZM238.706 183.703H73.7535C72.5708 183.703 71.6099 182.742 71.6099 181.559V79.8265C71.6099 72.1203 77.8746 65.8926 85.5807 65.8926H226.842C234.548 65.8926 240.776 72.1388 240.794 79.8265V181.559C240.794 182.742 239.852 183.684 238.669 183.703H238.706Z" fill="black"/>
<path d="M89.4064 179.416H223.035V92.0975C223.035 87.6623 219.432 84.0587 214.978 84.0402H97.4452C93.01 84.0402 89.4064 87.6438 89.4064 92.0975V179.416ZM225.179 183.703H87.2443C86.0615 183.703 85.1006 182.742 85.1006 181.559V92.0975C85.1006 85.2784 90.6261 79.7529 97.4452 79.7344H214.978C221.797 79.7344 227.323 85.2784 227.323 92.0975V181.559C227.323 182.742 226.362 183.703 225.179 183.703Z" fill="black"/>
<path d="M134.608 230.808H177.814V207.579H134.608V230.808ZM179.958 235.095H132.464C131.282 235.095 130.321 234.134 130.321 232.952V205.472C130.321 204.289 131.282 203.328 132.464 203.328H179.958C181.141 203.328 182.102 204.289 182.102 205.472V232.952C182.102 233.524 181.88 234.06 181.473 234.467C181.067 234.874 180.531 235.095 179.958 235.095Z" fill="black"/>
<path d="M203.723 230.81H108.718V235.097H203.723V230.81Z" fill="black"/>
<path d="M133.037 124.217C128.713 116.954 119.325 114.57 112.081 118.895C104.819 123.219 102.435 132.607 106.759 139.851C111.083 147.114 120.471 149.498 127.715 145.173C134.978 140.849 137.362 131.461 133.037 124.217Z" fill="#8D77CB"/>
<path d="M206.736 124.217C202.411 116.954 193.024 114.57 185.779 118.895C178.517 123.219 176.133 132.607 180.457 139.851C184.781 147.114 194.169 149.498 201.413 145.173C208.676 140.849 211.06 131.461 206.736 124.217Z" fill="#AFF89E"/>
<path d="M161.275 119.115L152.497 146.429M163.881 137.854L172.659 132.772L163.881 127.69M149.891 127.69L141.113 132.772L149.891 137.854" stroke="black" stroke-width="1.848" stroke-miterlimit="116.67"/>
</g>
<defs>
<clipPath id="clip0_557_1473">
<rect width="169.221" height="169.221" fill="white" transform="translate(71.6099 65.8936)"/>
</clipPath>
</defs>
</svg>
