<svg width="195" height="196" viewBox="0 0 195 196" fill="none" xmlns="http://www.w3.org/2000/svg">
<rect y="0.799805" width="194.4" height="194.4" rx="4.8" fill="#D6F3FE"/>
<g clip-path="url(#clip0_742_1740)">
<path d="M127.805 91.0619V69.6299H63.5243C60.6017 69.6299 57.6956 70.3608 55.2505 71.8855C52.8054 73.4102 50.6072 75.7993 50.6072 79.556C50.6072 87.6589 55.8103 90.6611 65.1133 91.3134C74.4162 91.9657 143.135 91.1798 143.135 91.1798V159.13H62.7834C62.7834 159.13 50.4673 159.657 50.4673 144.497L50.6072 79.5482" stroke="black" stroke-width="2.64" stroke-linecap="round" stroke-linejoin="round"/>
<path d="M91.6224 29.1401C85.1268 26.2872 77.4457 28.9908 74.4573 35.1917C71.4688 41.3926 74.3008 48.7252 80.7964 51.5781C87.292 54.431 94.9731 51.7274 97.9616 45.5344C100.95 39.3413 98.118 32.0008 91.6307 29.1479L91.6224 29.1401Z" fill="#75D6FB"/>
<path d="M124.965 42.108C118.469 39.2551 110.788 41.9587 107.8 48.1517C104.811 54.3526 107.643 61.6853 114.131 64.5381C120.626 67.391 128.307 64.6875 131.296 58.4944C134.284 52.2935 131.452 44.9609 124.965 42.108Z" fill="#AFF89E"/>
<path d="M136.335 90.1189C136.886 84.9712 134.005 79.847 128.793 77.6071C122.273 74.8014 114.617 77.56 111.678 83.7844C110.673 85.9143 110.369 88.1541 110.632 90.3154L136.343 90.1189H136.335Z" fill="#BAADE9"/>
</g>
<defs>
<clipPath id="clip0_742_1740">
<rect width="95.2096" height="132.325" fill="white" transform="translate(49.2002 28)"/>
</clipPath>
</defs>
</svg>
