<svg width="195" height="196" viewBox="0 0 195 196" fill="none" xmlns="http://www.w3.org/2000/svg">
<rect y="0.799805" width="194.4" height="194.4" rx="4.8" fill="#D6F3FE"/>
<g clip-path="url(#clip0_742_1737)">
<path d="M108.922 139.477L111.704 139.412L114.644 139.724C115.939 139.866 117.217 140.318 118.362 141.016L121.655 143.084C122.009 143.309 122.39 143.496 122.786 143.628L125.198 144.46C125.563 144.597 126.027 144.704 126.511 144.742L127.987 144.877C129.025 144.973 130.693 144.715 131.759 144.053C132.419 143.648 132.952 143.114 133.359 142.499L133.988 141.588C134.148 141.35 134.243 141.078 134.234 140.805L134.294 138.616C134.363 135.634 133.574 132.713 131.991 130.189L131.775 129.855C130.92 128.477 129.835 127.271 128.578 126.239L126.238 124.348C125.123 123.193 123.875 122.179 122.532 121.287L118.54 119.043C123.611 116.666 129.519 116.383 134.875 118.383L134.818 118.472L136.646 119.146C137.791 119.694 138.903 120.353 139.978 121.136C142.474 122.953 144.445 125.231 145.877 127.756L147.176 130.526C149.698 136.991 148.969 144.598 144.545 150.634C137.656 160.042 124.454 162.092 115.043 155.216C109.722 151.318 106.754 145.398 106.427 139.281L107.221 139.44C107.779 139.485 108.372 139.509 108.95 139.485" fill="#75D6FB"/>
<path d="M145.853 127.733L148.371 125.609C149.057 125.015 149.635 124.33 150.09 123.549L149.635 128.399L147.17 130.494C146.804 129.545 146.367 128.636 145.867 127.737" fill="black"/>
<path d="M145.831 127.757C146.34 128.628 146.773 129.551 147.139 130.5L145.831 127.757Z" fill="black"/>
<path d="M136.623 119.125C136.044 118.849 135.457 118.601 134.861 118.38L135.248 117.834C135.248 117.834 135.304 117.745 135.33 117.708L138.352 117.999C138.22 118.546 137.983 119.046 137.662 119.522L136.633 119.143L136.623 119.125Z" fill="black"/>
<path d="M106.449 136.36C106.373 137.329 106.357 138.3 106.404 139.26L106.175 139.222L106.449 136.36Z" fill="black"/>
<path d="M112.946 115.561L115.625 117.372C116.166 117.727 116.715 118.054 117.272 118.354L118.321 118.919L118.526 119.039C117.481 119.527 116.485 120.103 115.528 120.752C114.975 120.439 114.464 120.137 113.978 119.799L108.645 116.198C108.556 116.142 108.472 116.072 108.383 116.016L108.466 115.125L112.95 115.547L112.946 115.561Z" fill="black"/>
<path d="M151.019 121.166L154.848 102.898C155.454 99.6236 154.497 96.2031 152.302 93.7689L124.369 64.3866C124.075 64.0597 123.703 63.8448 123.284 63.7363L31.9965 41.3625C31.2149 41.1619 30.7272 40.3724 30.9181 39.5729C31.1049 38.7873 31.9123 38.2898 32.6939 38.4904L123.992 60.8822C124.984 61.1301 125.864 61.6599 126.522 62.3797L154.456 91.762C157.295 94.9119 158.517 99.2663 157.729 103.463L153.906 121.762C153.418 124.126 152.118 126.295 150.277 127.853L149.635 128.4L150.09 123.549C150.52 122.805 150.847 122.001 151.023 121.152" fill="black"/>
<path d="M28.6944 81.3003L32.4373 82.4047C35.6138 83.3421 38.5565 85.0212 40.9843 87.224L44.03 90.0295L54.4645 100.766C55.7408 102.088 57.1366 103.311 58.5788 104.427L69.3121 112.624L91.2513 126.755L102.93 135.006C103.935 135.618 105.025 136.044 106.178 136.31C106.275 136.338 106.376 136.353 106.463 136.363L106.189 139.225L104.289 138.845C103.275 138.516 102.28 138.072 101.316 137.472L89.6141 129.2L67.6416 115.029L56.8239 106.762C55.2558 105.563 53.7698 104.239 52.3758 102.807L41.9982 92.1324L39.0093 89.3887C36.9152 87.4796 34.3543 86.0333 31.6237 85.2125L27.8947 84.1121C27.1075 83.8798 26.6734 83.0611 26.9017 82.2876C27.1299 81.5142 27.9527 81.0664 28.7261 81.2946" fill="black"/>
<path d="M135.549 116.962L136.067 108.136C136.093 107.588 135.87 107.072 135.444 106.736L125.028 98.6328C124.649 98.3407 124.227 98.1413 123.754 98.0165L116.188 96.1293C114.479 95.715 112.678 96.0693 111.251 97.0895L102.205 103.729C101.898 103.954 101.822 104.262 101.805 104.422C101.788 104.582 101.795 104.914 102.042 105.197L106.589 110.443C107.653 111.672 108.899 112.791 110.299 113.744L112.941 115.53L108.456 115.107L108.373 115.999C106.869 114.939 105.501 113.725 104.351 112.38L99.8037 107.134C99.0869 106.307 98.7384 105.198 98.8686 104.096C98.9947 103.007 99.575 102.007 100.459 101.352L109.523 94.7029C111.647 93.1526 114.339 92.626 116.899 93.2613L124.451 95.1445C125.32 95.3557 126.121 95.7424 126.829 96.2965L137.244 104.4C138.429 105.32 139.095 106.777 138.993 108.294L138.462 117.115C138.449 117.412 138.399 117.682 138.332 117.963L135.31 117.672C135.434 117.453 135.508 117.204 135.526 116.94" fill="black"/>
<path d="M108.815 136.532L111.51 136.456L111.925 136.474L114.966 136.801C116.696 136.996 118.397 137.588 119.924 138.519L123.232 140.591C123.395 140.699 123.566 140.78 123.76 140.837L126.213 141.681C126.379 141.73 126.586 141.791 126.805 141.811L128.282 141.946C128.835 142.004 129.808 141.811 130.2 141.551C130.494 141.368 130.728 141.137 130.914 140.861L131.313 140.273L131.352 138.513C131.418 136.1 130.772 133.763 129.498 131.72L129.281 131.386C128.6 130.284 127.742 129.325 126.725 128.5L124.314 126.542C124.314 126.542 124.216 126.468 124.183 126.428C122.826 125.022 121.244 123.82 119.508 122.887L115.867 120.927C115.751 120.863 115.635 120.798 115.533 120.738C116.494 120.076 117.49 119.499 118.53 119.025L122.522 121.269C123.87 122.147 125.113 123.175 126.233 124.316L128.572 126.207C129.833 127.225 130.915 128.445 131.769 129.823L131.986 130.157C133.568 132.681 134.358 135.602 134.289 138.584L134.228 140.773C134.22 141.056 134.138 141.332 133.968 141.552L133.339 142.463C132.932 143.078 132.404 143.598 131.739 144.017C130.683 144.697 129.001 144.951 127.964 144.855L126.487 144.72C126.007 144.668 125.557 144.565 125.174 144.437L122.762 143.606C122.366 143.474 121.986 143.286 121.632 143.062L118.338 140.994C117.207 140.3 115.915 139.843 114.621 139.702L111.68 139.389L108.898 139.454C108.321 139.479 107.727 139.454 107.17 139.41L106.376 139.251C106.329 138.291 106.332 137.316 106.421 136.351C107.173 136.498 107.95 136.562 108.787 136.524" fill="black"/>
<path d="M134.861 118.38C135.456 118.6 136.043 118.849 136.623 119.125L134.795 118.45L134.851 118.362L134.861 118.38Z" fill="black"/>
</g>
<defs>
<clipPath id="clip0_742_1737">
<rect width="141.638" height="94.2479" fill="white" transform="translate(32.5894 33.9102) rotate(16.4407)"/>
</clipPath>
</defs>
</svg>
