<svg width="195" height="196" viewBox="0 0 195 196" fill="none" xmlns="http://www.w3.org/2000/svg">
<rect y="0.799805" width="194.4" height="194.4" rx="4.8" fill="#D6F3FE"/>
<g clip-path="url(#clip0_742_1741)">
<path d="M156.198 97.4826C150.447 94.8532 143.646 97.3407 140.998 103.052C138.35 108.764 140.855 115.517 146.607 118.147C152.358 120.776 159.159 118.288 161.807 112.577C164.455 106.865 161.95 100.112 156.198 97.4826Z" fill="#4C96E1"/>
<path d="M127.434 97.4826C121.682 94.8532 114.881 97.3407 112.234 103.052C109.586 108.764 112.091 115.517 117.842 118.147C123.594 120.776 130.395 118.288 133.043 112.577C135.691 106.865 133.186 100.112 127.434 97.4826Z" fill="#AFF89E"/>
<path d="M98.6099 97.4826C92.8582 94.8532 86.0572 97.3407 83.4094 103.052C80.7615 108.764 83.2665 115.517 89.0182 118.147C94.7699 120.776 101.571 118.288 104.219 112.577C106.867 106.865 104.362 100.112 98.6099 97.4826Z" fill="#8D77CB"/>
<path d="M69.9063 97.4826C64.1546 94.8532 57.3536 97.3407 54.7057 103.052C52.0579 108.764 54.5629 115.517 60.3146 118.147C66.0663 120.776 72.8673 118.288 75.5152 112.577C78.1631 106.865 75.658 100.112 69.9063 97.4826Z" fill="#75D6FB"/>
<path d="M41.1641 97.4826C35.4124 94.8532 28.6114 97.3407 25.9636 103.052C23.3157 108.764 25.8207 115.517 31.5724 118.147C37.3241 120.776 44.1251 118.288 46.773 112.577C49.4209 106.865 46.9158 100.112 41.1641 97.4826Z" fill="#BAADE9"/>
<path d="M20.5688 88.345C20.5688 88.345 52.2335 83.9863 52.9641 43.5966C52.9641 43.5966 49.7998 88.585 93.8853 88.585C137.971 88.585 136.268 42.8711 136.268 42.8711C136.268 42.8711 133.103 79.3931 168.905 88.0995" stroke="black" stroke-width="2.4" stroke-miterlimit="10"/>
<path d="M20.5688 119.789H169.146" stroke="black" stroke-width="2.4" stroke-miterlimit="10"/>
<path d="M52.9639 43.5967V144.942" stroke="black" stroke-width="2.4" stroke-miterlimit="10"/>
<path d="M136.268 42.8711V145.182" stroke="black" stroke-width="2.4" stroke-miterlimit="10"/>
<path d="M35.7915 81.6895V119.908" stroke="black" stroke-width="2.4" stroke-miterlimit="10"/>
<path d="M68.5493 81.084V119.788" stroke="black" stroke-width="2.4" stroke-miterlimit="10"/>
<path d="M86.5732 88.0986V119.542" stroke="black" stroke-width="2.4" stroke-miterlimit="10"/>
<path d="M103.625 87.7393V119.543" stroke="black" stroke-width="2.4" stroke-miterlimit="10"/>
<path d="M121.408 79.7588V119.663" stroke="black" stroke-width="2.4" stroke-miterlimit="10"/>
<path d="M154.292 82.0557V119.543" stroke="black" stroke-width="2.4" stroke-miterlimit="10"/>
<path d="M31.2812 145.182H75.125" stroke="black" stroke-width="3.6" stroke-miterlimit="10"/>
<path d="M114.585 145.182H158.429" stroke="black" stroke-width="3.6" stroke-miterlimit="10"/>
</g>
<defs>
<clipPath id="clip0_742_1741">
<rect width="148.8" height="103.2" fill="white" transform="translate(20.3999 42.7998)"/>
</clipPath>
</defs>
</svg>
