<svg width="195" height="196" viewBox="0 0 195 196" fill="none" xmlns="http://www.w3.org/2000/svg">
<rect y="0.799805" width="194.4" height="194.4" rx="4.8" fill="#D6F3FE"/>
<g clip-path="url(#clip0_742_1738)">
<path d="M36.736 142.749L61.7321 152.74C61.7793 152.759 61.8359 152.778 61.8925 152.797L66.2897 154.549C66.5445 154.625 66.7804 154.721 67.0068 154.835L73.3856 157.387C79.9814 160.045 86.2658 162.578 86.6055 162.549C86.6622 162.549 102.071 163.073 128.804 151.949C128.936 151.892 129.058 151.825 129.162 151.721C129.19 151.692 139.381 141.187 153.139 125.596C157.121 120.996 151.894 115.758 147.506 118.786L146.798 119.367C146.119 116.596 142.76 116.081 140.721 117.777L138.995 118.986C138.476 116.967 136.06 116.71 134.484 117.596C122.972 124.777 115.82 127.501 114.885 127.844C108.308 128.996 102.524 129.529 101.42 129.625C100.269 129.301 99.1083 129.006 97.9288 128.739C89.8704 126.92 86.2847 126.329 83.4445 126.425C80.2456 122.12 77.7545 120.729 77.6602 120.691C77.6602 120.701 67.0352 117.291 55.4571 118.92L39.982 113.71L39.4252 115.405L55.2967 120.748L55.5043 120.72C67.1389 119.034 75.6597 121.882 77.2733 122.482C77.2733 122.482 77.2733 122.482 77.2733 122.491C78.5849 123.329 79.3964 124.586 82.3876 127.977C82.5858 128.206 82.8783 128.31 83.1614 128.282C85.3505 128.11 89.2005 128.653 97.5514 130.549C101.458 131.434 105.874 132.73 109.252 134.701C112.092 136.349 114.687 138.787 113.498 142.339C85.1807 142.216 80.9439 139.149 80.9156 139.149C79.7738 138.787 79.2454 140.558 80.3872 140.901C80.4155 140.911 85.0108 144.092 114.046 144.168C114.432 144.197 114.8 143.997 114.961 143.616C115.461 142.425 115.735 141.139 115.584 139.854C121.217 139.254 125.982 138.692 125.982 138.692C126.171 138.663 126.331 138.587 126.463 138.463L146.204 122.244L146.213 122.234V122.205H146.251L148.544 120.301C151.186 118.491 154.319 121.444 151.771 124.377C138.891 138.968 129.172 149.073 127.992 150.292C103.298 160.559 88.4644 160.53 86.6339 160.692L37.2549 141.482C36.9247 141.101 36.4623 141.301 36.2925 141.711C36.132 142.12 36.3302 142.597 36.736 142.749ZM110.63 133.387C109.054 132.434 107.488 131.701 105.761 131.044H105.751C108.167 130.758 111.46 130.31 115.244 129.653L115.461 129.596C115.461 129.596 122.906 126.987 135.428 119.167C136.56 118.701 137.881 119.129 137.004 120.253C136.947 120.32 136.909 120.386 136.881 120.472L119.084 132.958L110.63 133.387ZM144.902 120.92L125.473 136.892L115.093 138.054C114.631 136.977 113.895 136.006 112.932 135.101H112.904L119.386 134.768C119.575 134.768 119.745 134.711 119.905 134.606C127.011 129.625 135.079 124.434 141.854 119.196C143.58 117.748 145.732 119.224 144.911 120.91L144.902 120.92Z" fill="black" stroke="black" stroke-width="0.839722" stroke-miterlimit="10"/>
<path d="M154.064 55.6502L129.068 45.6594C129.021 45.6403 128.964 45.6213 128.908 45.6023L124.51 43.8498C124.256 43.7736 124.02 43.6784 123.793 43.5641L117.414 41.0116C110.819 38.3544 104.534 35.821 104.195 35.8496C104.138 35.8496 88.7288 35.3258 61.9965 46.4499C61.8644 46.507 61.7417 46.5737 61.6379 46.6785C61.6096 46.707 51.4187 57.2121 37.6609 72.8031C33.6789 77.4032 38.9064 82.6414 43.2942 79.6128L44.0019 79.0318C44.6813 81.8033 48.0405 82.3176 50.0787 80.6223L51.8055 79.4128C52.3245 81.4319 54.7401 81.689 56.316 80.8033C67.828 73.6221 74.9805 70.8982 75.9147 70.5554C82.4916 69.403 88.2759 68.8696 89.3799 68.7744C90.5311 69.0982 91.6918 69.3934 92.8713 69.6601C100.93 71.4792 104.515 72.0697 107.356 71.9745C110.554 76.2793 113.046 77.6699 113.14 77.708C113.14 77.6984 123.765 81.1081 135.343 79.4794L150.818 84.6891L151.375 82.9938L135.503 77.6508L135.296 77.6794C123.661 79.3651 115.14 76.5174 113.527 75.9174C113.527 75.9174 113.527 75.9174 113.527 75.9079C112.215 75.0698 111.404 73.8126 108.412 70.422C108.214 70.1935 107.922 70.0887 107.639 70.1173C105.45 70.2887 101.6 69.7458 93.2487 67.8505C89.3422 66.9648 84.9261 65.6695 81.548 63.698C78.7077 62.0504 76.1128 59.6122 77.3018 56.0597C105.619 56.1835 109.856 59.2503 109.884 59.2503C111.026 59.6122 111.555 57.8407 110.413 57.4978C110.385 57.4883 105.789 54.3073 76.7545 54.2311C76.3676 54.2025 75.9996 54.4025 75.8392 54.7835C75.3391 55.974 75.0654 57.2597 75.2164 58.5455C69.5831 59.1455 64.8179 59.7074 64.8179 59.7074C64.6291 59.736 64.4687 59.8122 64.3366 59.936L44.5964 76.146L44.5869 76.1555V76.1841H44.5492L42.2562 78.0889C39.6141 79.8985 36.4814 76.946 39.0291 74.0126C51.8999 59.4217 61.619 49.3166 62.7985 48.0976C87.5021 37.8306 102.326 37.8496 104.157 37.6973L153.536 56.9169C153.866 57.2978 154.328 57.0978 154.498 56.6883C154.659 56.2788 154.46 55.8025 154.055 55.6502H154.064ZM80.1703 65.0028C81.7462 65.9552 83.3125 66.6886 85.0393 67.3457H85.0488C82.6331 67.6315 79.34 68.0791 75.5561 68.7363L75.3391 68.7934C75.3391 68.7934 67.894 71.403 55.3724 79.2223C54.24 79.689 52.919 79.2604 53.7965 78.1365C53.8532 78.0699 53.8909 78.0032 53.9192 77.9175L71.7156 65.4314L80.1703 65.0028ZM45.8986 77.4699L65.3274 61.498L75.7071 60.336C76.1694 61.4122 76.9055 62.3837 77.8679 63.2885H77.8962L71.4137 63.6218C71.2249 63.6218 71.0551 63.679 70.8947 63.7837C63.7893 68.7648 55.7215 73.9555 48.9464 79.1937C47.2196 80.6414 45.0682 79.1651 45.8891 77.4794L45.8986 77.4699Z" fill="black" stroke="black" stroke-width="0.839722" stroke-miterlimit="10"/>
<path d="M110.556 70.3732C108.835 69.989 107.019 69.9081 105.17 70.1914C97.0676 71.4397 91.5014 79.0557 92.749 87.2389C93.9914 95.4141 101.544 101.035 109.654 99.7811C117.764 98.5275 123.322 90.9167 122.075 82.7336C121.234 77.1777 117.466 72.8159 112.608 70.9704C111.87 70.948 111.177 70.7357 110.564 70.368L110.556 70.3732Z" fill="#4C96E1"/>
<path d="M66.3408 77.8463C58.2386 79.0946 52.6776 86.7186 53.9148 94.8858C55.1572 103.061 62.7174 108.676 70.8117 107.433C78.906 106.19 84.4749 98.5609 83.2377 90.3937C82.0005 82.2265 74.4351 76.6032 66.3408 77.8463Z" fill="#AFF89E"/>
<path d="M88.8979 110.668C80.7957 111.916 75.2347 119.54 76.4719 127.707C77.7143 135.882 85.2745 141.498 93.3688 140.255C101.471 139.006 107.037 131.39 105.795 123.215C104.552 115.04 96.9922 109.424 88.8979 110.668Z" fill="#8D77CB"/>
</g>
<defs>
<clipPath id="clip0_742_1738">
<rect width="118.8" height="127.2" fill="white" transform="translate(36 35.5996)"/>
</clipPath>
</defs>
</svg>
