<svg width="195" height="196" viewBox="0 0 195 196" fill="none" xmlns="http://www.w3.org/2000/svg">
<rect y="0.799805" width="194.4" height="194.4" rx="4.8" fill="#D6F3FE"/>
<g clip-path="url(#clip0_742_1739)">
<path d="M128.043 65.8838H128.054C128.576 65.8838 129 66.4068 129 66.8318V80.4308C129 80.9538 128.576 81.3788 128.054 81.3788H128.043C127.522 81.3788 127.098 80.8557 127.098 80.4308V66.8318C127.098 66.3088 127.522 65.8838 128.043 65.8838Z" fill="black"/>
<path d="M75.9692 35.3945H118.02C122.781 35.3945 126.641 40.1672 126.641 44.0355V150.964C126.641 155.737 122.781 159.605 118.02 159.605H75.9692C71.2075 159.605 67.3481 154.832 67.3481 150.964V44.0355C67.359 39.2628 71.2075 35.3945 75.9692 35.3945Z" stroke="black" stroke-width="3" stroke-miterlimit="56"/>
<path d="M65.7719 63.0391H66.1198C66.5437 63.0391 66.8916 63.464 66.8916 63.8127V72.0615C66.8916 72.4864 66.5437 72.8351 66.1198 72.8351H65.7719C65.3479 72.8351 65 72.4101 65 72.0615V63.8127C65 63.3878 65.3479 63.0391 65.7719 63.0391Z" fill="black"/>
<path d="M65.7719 75.374H66.1198C66.5437 75.374 66.8916 75.799 66.8916 76.1477V84.3964C66.8916 84.8214 66.5437 85.1701 66.1198 85.1701H65.7719C65.3479 85.1701 65 84.7451 65 84.3964V76.1477C65 75.7227 65.3479 75.374 65.7719 75.374Z" fill="black"/>
<path d="M94.0052 38.3916H100.3C100.648 38.3916 100.941 38.7403 100.941 39.0236C100.941 39.3723 100.658 39.6556 100.3 39.6556H94.0052C93.6573 39.6556 93.3638 39.3069 93.3638 39.0236C93.3638 38.6749 93.6464 38.3916 94.0052 38.3916Z" fill="black"/>
<path d="M93.0703 55.9678C87.352 53.3309 80.5899 55.8262 77.9591 61.5578C75.3282 67.2894 77.8177 74.0671 83.5361 76.7041C89.2545 79.3411 96.0165 76.8457 98.6474 71.1141C101.278 65.3825 98.7887 58.6048 93.0703 55.9678Z" fill="#8D77CB"/>
<path d="M113.726 78.6651C108.007 76.0281 101.245 78.5234 98.6143 84.2551C95.9834 89.9867 98.473 96.7644 104.191 99.4013C109.91 102.038 116.672 99.543 119.303 93.8114C121.934 88.0798 119.444 81.3021 113.726 78.6651Z" fill="#00D0D4"/>
<path d="M90.4502 89.1046C84.7318 86.4676 77.9698 88.9629 75.3389 94.6945C72.7081 100.426 75.1976 107.204 80.916 109.841C86.6343 112.478 93.3964 109.982 96.0272 104.251C98.6581 98.5192 96.1686 91.7415 90.4502 89.1046Z" fill="#AFF89E"/>
<path d="M90.124 121.936C84.4057 119.299 77.6436 121.794 75.0128 127.526C72.3819 133.257 74.8714 140.035 80.5898 142.672C86.3082 145.309 93.0702 142.814 95.7011 137.082C98.3319 131.35 95.8424 124.573 90.124 121.936Z" fill="#8D77CB"/>
<path d="M112.639 106.996C106.92 104.359 100.158 106.855 97.5274 112.586C94.8965 118.318 97.3861 125.095 103.104 127.732C108.823 130.369 115.585 127.874 118.216 122.142C120.847 116.411 118.357 109.633 112.639 106.996Z" fill="#BAADE9"/>
</g>
<defs>
<clipPath id="clip0_742_1739">
<rect width="64" height="127" fill="white" transform="translate(65 34)"/>
</clipPath>
</defs>
</svg>
